# xmcd
#
# Track frame offsets:
# 150
# 161659
# 210225
# 225587
#
# Disc length: 3304 seconds
#
# Revision: 0
# Processed by: cddbd v1.4PL0 Copyright (c) Steve Scherf et al.
# Submitted via: Audion 2.6.0 (http://www.panic.com/audion/)
#
DISCID=260ce604
DTITLE=Mics - Hex
DYEAR=1900
DGENRE=
TTITLE0=Long Mix
TTITLE1=More
TTITLE2=more2
TTITLE3=some more
EXTD=
EXTT0=
EXTT1=
EXTT2=
EXTT3=
PLAYORDER=
